ffmpeg started on 2025-07-06 at 17:54:57
Report written to "D:\Convert\FFMetrics\reports\psnr_report-6.txt"
Log level: 32
Command line:
ffmpeg -hide_banner -nostdin -i "G:\\\xc0\xed\xe8\xec\xe5\\\xce\xed\xe3\xee\xe8\xed\xe3\xe8\\!_37_\xc7\xe8\xec\xe0_2025\\JamClub\\\xc3\xee\xeb\xf3\xe1\xe0\xff \xf8\xea\xe0\xf2\xf3\xeb\xea\xe0\\JamClub_Ao_no_Hako_13_1080p_HEVC.mkv" -i "G:\\\xc0\xed\xe8\xec\xe5\\\xce\xed\xe3\xee\xe8\xed\xe3\xe8\\!_37_\xc7\xe8\xec\xe0_2025\\JamClub\\\xc3\xee\xeb\xf3\xe1\xe0\xff \xf8\xea\xe0\xf2\xf3\xeb\xea\xe0\\JamClub_Ao_no_Hako_13_1080p.mp4" -lavfi "[0:v]settb=AVTB,setpts=PTS-STARTPTS,format=pix_fmts=yuv420p10,fps=24000/1001,scale=1920:1080:flags=bicubic[main];[1:v]settb=AVTB,setpts=PTS-STARTPTS,format=pix_fmts=yuv420p,fps=24000/1001,scale=1920:1080:flags=bicubic[ref];[main][ref]psnr=eof_action=endall:stats_file='D\\:/Convert/FFMetrics/logs/psnr_logfile-6.txt'" -f null -
Input #0, matroska,webm, from 'G:\Аниме\Онгоинги\!_37_Зима_2025\JamClub\Голубая шкатулка\JamClub_Ao_no_Hako_13_1080p_HEVC.mkv':
  Metadata:
    COMPATIBLE_BRANDS: isomiso2avc1mp41
    MAJOR_BRAND     : isom
    MINOR_VERSION   : 512
    ENCODER         : Lavf61.7.100
  Duration: 00:23:59.25, start: -0.001000, bitrate: 1207 kb/s
  Stream #0:0: Video: hevc (Main 10), yuv420p10le(tv, bt709, progressive), 1920x1080 [SAR 1:1 DAR 16:9], 23.98 fps, 23.98 tbr, 1k tbn (default)
      Metadata:
        HANDLER_NAME    : VideoHandler
        VENDOR_ID       : [0][0][0][0]
        ENCODER         : Lavc61.19.100 libx265
        BPS             : 1010469
        DURATION        : 00:23:59.187708333
        NUMBER_OF_FRAMES: 34506
        NUMBER_OF_BYTES : 181781792
        _STATISTICS_WRITING_APP: mkvpropedit v66.0.0 ('Josie') 64-bit
        _STATISTICS_WRITING_DATE_UTC: 2025-07-05 10:00:01
        _STATISTICS_TAGS: BPS DURATION NUMBER_OF_FRAMES NUMBER_OF_BYTES
  Stream #0:1(eng): Audio: aac (LC), 48000 Hz, stereo, fltp (default)
      Metadata:
        HANDLER_NAME    : SoundHandler
        VENDOR_ID       : [0][0][0][0]
        ENCODER         : Lavc61.19.100 aac
        BPS             : 193200
        DURATION        : 00:23:59.213000000
        NUMBER_OF_FRAMES: 67464
        NUMBER_OF_BYTES : 34757042
        _STATISTICS_WRITING_APP: mkvpropedit v66.0.0 ('Josie') 64-bit
        _STATISTICS_WRITING_DATE_UTC: 2025-07-05 10:00:01
        _STATISTICS_TAGS: BPS DURATION NUMBER_OF_FRAMES NUMBER_OF_BYTES
Input #1, mov,mp4,m4a,3gp,3g2,mj2, from 'G:\Аниме\Онгоинги\!_37_Зима_2025\JamClub\Голубая шкатулка\JamClub_Ao_no_Hako_13_1080p.mp4':
  Metadata:
    major_brand     : isom
    minor_version   : 512
    compatible_brands: isomiso2avc1mp41
    encoder         : Lavf60.16.100
  Duration: 00:23:59.23, start: 0.000000, bitrate: 5050 kb/s
  Stream #1:0[0x1](und): Video: h264 (High) (avc1 / 0x31637661), yuv420p(progressive), 1920x1080 [SAR 1:1 DAR 16:9], 4852 kb/s, 23.98 fps, 23.98 tbr, 90k tbn (default)
      Metadata:
        handler_name    : VideoHandler
        vendor_id       : [0][0][0][0]
  Stream #1:1[0x2](eng): Audio: aac (LC) (mp4a / 0x6134706D), 48000 Hz, stereo, fltp, 191 kb/s (default)
      Metadata:
        handler_name    : SoundHandler
        vendor_id       : [0][0][0][0]
Stream mapping:
  Stream #0:0 (hevc) -> settb:default
  Stream #1:0 (h264) -> settb:default
  psnr:default -> Stream #0:0 (wrapped_avframe)
  Stream #0:1 -> #0:1 (aac (native) -> pcm_s16le (native))
Output #0, null, to 'pipe:':
  Metadata:
    COMPATIBLE_BRANDS: isomiso2avc1mp41
    MAJOR_BRAND     : isom
    MINOR_VERSION   : 512
    encoder         : Lavf61.7.100
  Stream #0:0: Video: wrapped_avframe, yuv420p10le(tv, bt709, progressive), 1920x1080 [SAR 1:1 DAR 16:9], q=2-31, 200 kb/s, 23.98 fps, 23.98 tbn
      Metadata:
        encoder         : Lavc61.19.100 wrapped_avframe
  Stream #0:1(eng): Audio: pcm_s16le, 48000 Hz, stereo, s16, 1536 kb/s (default)
      Metadata:
        HANDLER_NAME    : SoundHandler
        VENDOR_ID       : [0][0][0][0]
        _STATISTICS_TAGS: BPS DURATION NUMBER_OF_FRAMES NUMBER_OF_BYTES
        BPS             : 193200
        DURATION        : 00:23:59.213000000
        NUMBER_OF_FRAMES: 67464
        NUMBER_OF_BYTES : 34757042
        _STATISTICS_WRITING_APP: mkvpropedit v66.0.0 ('Josie') 64-bit
        _STATISTICS_WRITING_DATE_UTC: 2025-07-05 10:00:01
        encoder         : Lavc61.19.100 pcm_s16le
frame=  109 fps=0.0 q=-0.0 size=N/A time=00:00:04.54 bitrate=N/A speed=8.81x    frame=  266 fps=259 q=-0.0 size=N/A time=00:00:11.09 bitrate=N/A speed=10.8x    frame=  453 fps=294 q=-0.0 size=N/A time=00:00:18.89 bitrate=N/A speed=12.3x    frame=  685 fps=332 q=-0.0 size=N/A time=00:00:28.57 bitrate=N/A speed=13.8x    frame=  915 fps=355 q=-0.0 size=N/A time=00:00:38.16 bitrate=N/A speed=14.8x    frame= 1141 fps=369 q=-0.0 size=N/A time=00:00:47.58 bitrate=N/A speed=15.4x    frame= 1367 fps=380 q=-0.0 size=N/A time=00:00:57.01 bitrate=N/A speed=15.8x    frame= 1588 fps=385 q=-0.0 size=N/A time=00:01:06.23 bitrate=N/A speed=  16x    frame= 1794 fps=387 q=-0.0 size=N/A time=00:01:14.82 bitrate=N/A speed=16.1x    frame= 2026 fps=393 q=-0.0 size=N/A time=00:01:24.50 bitrate=N/A speed=16.4x    frame= 2262 fps=399 q=-0.0 size=N/A time=00:01:34.34 bitrate=N/A speed=16.7x    frame= 2499 fps=404 q=-0.0 size=N/A time=00:01:44.22 bitrate=N/A speed=16.8x    frame= 2718 fps=406 q=-0.0 size=N/A time=00:01:53.36 bitrate=N/A speed=16.9x    frame= 2979 fps=413 q=-0.0 size=N/A time=00:02:04.24 bitrate=N/A speed=17.2x    frame= 3223 fps=417 q=-0.0 size=N/A time=00:02:14.42 bitrate=N/A speed=17.4x    frame= 3469 fps=420 q=-0.0 size=N/A time=00:02:24.68 bitrate=N/A speed=17.5x    frame= 3729 fps=426 q=-0.0 size=N/A time=00:02:35.53 bitrate=N/A speed=17.7x    frame= 4001 fps=431 q=-0.0 size=N/A time=00:02:46.91 bitrate=N/A speed=  18x    frame= 4255 fps=435 q=-0.0 size=N/A time=00:02:57.46 bitrate=N/A speed=18.1x    frame= 4519 fps=438 q=-0.0 size=N/A time=00:03:08.47 bitrate=N/A speed=18.3x    frame= 4784 fps=442 q=-0.0 size=N/A time=00:03:19.53 bitrate=N/A speed=18.4x    frame= 5057 fps=446 q=-0.0 size=N/A time=00:03:30.91 bitrate=N/A speed=18.6x    frame= 5320 fps=448 q=-0.0 size=N/A time=00:03:41.88 bitrate=N/A speed=18.7x    frame= 5587 fps=452 q=-0.0 size=N/A time=00:03:53.02 bitrate=N/A speed=18.8x    frame= 5854 fps=454 q=-0.0 size=N/A time=00:04:04.16 bitrate=N/A speed=18.9x    frame= 6106 fps=456 q=-0.0 size=N/A time=00:04:14.67 bitrate=N/A speed=  19x    frame= 6363 fps=457 q=-0.0 size=N/A time=00:04:25.39 bitrate=N/A speed=19.1x    frame= 6620 fps=459 q=-0.0 size=N/A time=00:04:36.10 bitrate=N/A speed=19.1x    frame= 6891 fps=461 q=-0.0 size=N/A time=00:04:47.41 bitrate=N/A speed=19.2x    frame= 7137 fps=462 q=-0.0 size=N/A time=00:04:57.67 bitrate=N/A speed=19.3x    frame= 7402 fps=463 q=-0.0 size=N/A time=00:05:08.72 bitrate=N/A speed=19.3x    frame= 7638 fps=463 q=-0.0 size=N/A time=00:05:18.56 bitrate=N/A speed=19.3x    frame= 7877 fps=463 q=-0.0 size=N/A time=00:05:28.53 bitrate=N/A speed=19.3x    frame= 8123 fps=464 q=-0.0 size=N/A time=00:05:38.79 bitrate=N/A speed=19.3x    frame= 8323 fps=461 q=-0.0 size=N/A time=00:05:47.13 bitrate=N/A speed=19.2x    frame= 8517 fps=459 q=-0.0 size=N/A time=00:05:55.22 bitrate=N/A speed=19.1x    frame= 8754 fps=459 q=-0.0 size=N/A time=00:06:05.11 bitrate=N/A speed=19.1x    frame= 8989 fps=459 q=-0.0 size=N/A time=00:06:14.91 bitrate=N/A speed=19.1x    frame= 9231 fps=459 q=-0.0 size=N/A time=00:06:25.00 bitrate=N/A speed=19.1x    frame= 9455 fps=459 q=-0.0 size=N/A time=00:06:34.35 bitrate=N/A speed=19.1x    frame= 9696 fps=459 q=-0.0 size=N/A time=00:06:44.40 bitrate=N/A speed=19.1x    frame= 9954 fps=460 q=-0.0 size=N/A time=00:06:55.16 bitrate=N/A speed=19.2x    frame=10201 fps=460 q=-0.0 size=N/A time=00:07:05.46 bitrate=N/A speed=19.2x    frame=10447 fps=461 q=-0.0 size=N/A time=00:07:15.72 bitrate=N/A speed=19.2x    frame=10688 fps=461 q=-0.0 size=N/A time=00:07:25.77 bitrate=N/A speed=19.2x    frame=10949 fps=462 q=-0.0 size=N/A time=00:07:36.66 bitrate=N/A speed=19.3x    frame=11198 fps=462 q=-0.0 size=N/A time=00:07:47.04 bitrate=N/A speed=19.3x    frame=11413 fps=461 q=-0.0 size=N/A time=00:07:56.01 bitrate=N/A speed=19.2x    frame=11625 fps=460 q=-0.0 size=N/A time=00:08:04.85 bitrate=N/A speed=19.2x    frame=11888 fps=461 q=-0.0 size=N/A time=00:08:15.87 bitrate=N/A speed=19.2x    frame=12145 fps=462 q=-0.0 size=N/A time=00:08:26.54 bitrate=N/A speed=19.3x    frame=12407 fps=463 q=-0.0 size=N/A time=00:08:37.47 bitrate=N/A speed=19.3x    frame=12664 fps=463 q=-0.0 size=N/A time=00:08:48.19 bitrate=N/A speed=19.3x    frame=12922 fps=464 q=-0.0 size=N/A time=00:08:58.95 bitrate=N/A speed=19.4x    frame=13193 fps=465 q=-0.0 size=N/A time=00:09:10.25 bitrate=N/A speed=19.4x    frame=13446 fps=466 q=-0.0 size=N/A time=00:09:20.81 bitrate=N/A speed=19.4x    frame=13682 fps=465 q=-0.0 size=N/A time=00:09:30.65 bitrate=N/A speed=19.4x    frame=13916 fps=465 q=-0.0 size=N/A time=00:09:40.41 bitrate=N/A speed=19.4x    frame=14183 fps=466 q=-0.0 size=N/A time=00:09:51.54 bitrate=N/A speed=19.4x    frame=14449 fps=467 q=-0.0 size=N/A time=00:10:02.64 bitrate=N/A speed=19.5x    frame=14712 fps=468 q=-0.0 size=N/A time=00:10:13.61 bitrate=N/A speed=19.5x    frame=14973 fps=468 q=-0.0 size=N/A time=00:10:24.49 bitrate=N/A speed=19.5x    frame=15224 fps=469 q=-0.0 size=N/A time=00:10:34.96 bitrate=N/A speed=19.6x    frame=15497 fps=470 q=-0.0 size=N/A time=00:10:46.35 bitrate=N/A speed=19.6x    frame=15753 fps=470 q=-0.0 size=N/A time=00:10:57.03 bitrate=N/A speed=19.6x    frame=16006 fps=470 q=-0.0 size=N/A time=00:11:07.58 bitrate=N/A speed=19.6x    frame=16257 fps=471 q=-0.0 size=N/A time=00:11:18.05 bitrate=N/A speed=19.6x    frame=16518 fps=471 q=-0.0 size=N/A time=00:11:28.93 bitrate=N/A speed=19.6x    frame=16758 fps=471 q=-0.0 size=N/A time=00:11:38.94 bitrate=N/A speed=19.6x    frame=16996 fps=471 q=-0.0 size=N/A time=00:11:48.87 bitrate=N/A speed=19.6x    frame=17211 fps=470 q=-0.0 size=N/A time=00:11:57.84 bitrate=N/A speed=19.6x    frame=17435 fps=470 q=-0.0 size=N/A time=00:12:07.18 bitrate=N/A speed=19.6x    frame=17676 fps=470 q=-0.0 size=N/A time=00:12:17.23 bitrate=N/A speed=19.6x    frame=17931 fps=470 q=-0.0 size=N/A time=00:12:27.87 bitrate=N/A speed=19.6x    frame=18176 fps=470 q=-0.0 size=N/A time=00:12:38.09 bitrate=N/A speed=19.6x    frame=18404 fps=470 q=-0.0 size=N/A time=00:12:47.60 bitrate=N/A speed=19.6x    frame=18664 fps=470 q=-0.0 size=N/A time=00:12:58.44 bitrate=N/A speed=19.6x    frame=18925 fps=471 q=-0.0 size=N/A time=00:13:09.33 bitrate=N/A speed=19.6x    frame=19169 fps=471 q=-0.0 size=N/A time=00:13:19.50 bitrate=N/A speed=19.6x    frame=19393 fps=470 q=-0.0 size=N/A time=00:13:28.84 bitrate=N/A speed=19.6x    frame=19637 fps=470 q=-0.0 size=N/A time=00:13:39.02 bitrate=N/A speed=19.6x    frame=19859 fps=470 q=-0.0 size=N/A time=00:13:48.28 bitrate=N/A speed=19.6x    frame=20123 fps=470 q=-0.0 size=N/A time=00:13:59.29 bitrate=N/A speed=19.6x    frame=20398 fps=471 q=-0.0 size=N/A time=00:14:10.76 bitrate=N/A speed=19.6x    frame=20650 fps=471 q=-0.0 size=N/A time=00:14:21.27 bitrate=N/A speed=19.7x    frame=20886 fps=471 q=-0.0 size=N/A time=00:14:31.12 bitrate=N/A speed=19.6x    frame=21137 fps=471 q=-0.0 size=N/A time=00:14:41.58 bitrate=N/A speed=19.7x    frame=21376 fps=471 q=-0.0 size=N/A time=00:14:51.55 bitrate=N/A speed=19.6x    frame=21593 fps=471 q=-0.0 size=N/A time=00:15:00.60 bitrate=N/A speed=19.6x    frame=21779 fps=469 q=-0.0 size=N/A time=00:15:08.36 bitrate=N/A speed=19.6x    frame=22041 fps=470 q=-0.0 size=N/A time=00:15:19.29 bitrate=N/A speed=19.6x    frame=22285 fps=470 q=-0.0 size=N/A time=00:15:29.47 bitrate=N/A speed=19.6x    frame=22536 fps=470 q=-0.0 size=N/A time=00:15:39.93 bitrate=N/A speed=19.6x    frame=22733 fps=469 q=-0.0 size=N/A time=00:15:48.15 bitrate=N/A speed=19.6x    frame=22989 fps=469 q=-0.0 size=N/A time=00:15:58.83 bitrate=N/A speed=19.6x    frame=23233 fps=469 q=-0.0 size=N/A time=00:16:09.00 bitrate=N/A speed=19.6x    frame=23468 fps=469 q=-0.0 size=N/A time=00:16:18.81 bitrate=N/A speed=19.6x    frame=23737 fps=470 q=-0.0 size=N/A time=00:16:30.03 bitrate=N/A speed=19.6x    frame=23964 fps=469 q=-0.0 size=N/A time=00:16:39.49 bitrate=N/A speed=19.6x    frame=24224 fps=470 q=-0.0 size=N/A time=00:16:50.34 bitrate=N/A speed=19.6x    frame=24488 fps=470 q=-0.0 size=N/A time=00:17:01.35 bitrate=N/A speed=19.6x    frame=24719 fps=470 q=-0.0 size=N/A time=00:17:10.98 bitrate=N/A speed=19.6x    frame=24918 fps=469 q=-0.0 size=N/A time=00:17:19.28 bitrate=N/A speed=19.6x    frame=25136 fps=469 q=-0.0 size=N/A time=00:17:28.38 bitrate=N/A speed=19.6x    frame=25349 fps=468 q=-0.0 size=N/A time=00:17:37.26 bitrate=N/A speed=19.5x    frame=25558 fps=468 q=-0.0 size=N/A time=00:17:45.98 bitrate=N/A speed=19.5x    frame=25767 fps=467 q=-0.0 size=N/A time=00:17:54.69 bitrate=N/A speed=19.5x    frame=25980 fps=467 q=-0.0 size=N/A time=00:18:03.58 bitrate=N/A speed=19.5x    frame=26174 fps=466 q=-0.0 size=N/A time=00:18:11.67 bitrate=N/A speed=19.4x    frame=26347 fps=465 q=-0.0 size=N/A time=00:18:18.88 bitrate=N/A speed=19.4x    frame=26573 fps=464 q=-0.0 size=N/A time=00:18:28.31 bitrate=N/A speed=19.4x    frame=26814 fps=464 q=-0.0 size=N/A time=00:18:38.36 bitrate=N/A speed=19.4x    frame=27080 fps=465 q=-0.0 size=N/A time=00:18:49.46 bitrate=N/A speed=19.4x    frame=27341 fps=465 q=-0.0 size=N/A time=00:19:00.34 bitrate=N/A speed=19.4x    frame=27600 fps=465 q=-0.0 size=N/A time=00:19:11.15 bitrate=N/A speed=19.4x    frame=27854 fps=466 q=-0.0 size=N/A time=00:19:21.74 bitrate=N/A speed=19.4x    frame=28108 fps=466 q=-0.0 size=N/A time=00:19:32.33 bitrate=N/A speed=19.4x    frame=28361 fps=466 q=-0.0 size=N/A time=00:19:42.89 bitrate=N/A speed=19.4x    frame=28613 fps=466 q=-0.0 size=N/A time=00:19:53.40 bitrate=N/A speed=19.5x    frame=28868 fps=467 q=-0.0 size=N/A time=00:20:04.03 bitrate=N/A speed=19.5x    frame=29116 fps=467 q=-0.0 size=N/A time=00:20:14.37 bitrate=N/A speed=19.5x    frame=29343 fps=466 q=-0.0 size=N/A time=00:20:23.84 bitrate=N/A speed=19.5x    frame=29589 fps=467 q=-0.0 size=N/A time=00:20:34.10 bitrate=N/A speed=19.5x    frame=29858 fps=467 q=-0.0 size=N/A time=00:20:45.32 bitrate=N/A speed=19.5x    frame=30128 fps=467 q=-0.0 size=N/A time=00:20:56.58 bitrate=N/A speed=19.5x    frame=30358 fps=467 q=-0.0 size=N/A time=00:21:06.18 bitrate=N/A speed=19.5x    frame=30613 fps=468 q=-0.0 size=N/A time=00:21:16.81 bitrate=N/A speed=19.5x    frame=30857 fps=468 q=-0.0 size=N/A time=00:21:26.99 bitrate=N/A speed=19.5x    frame=31106 fps=468 q=-0.0 size=N/A time=00:21:37.37 bitrate=N/A speed=19.5x    frame=31319 fps=467 q=-0.0 size=N/A time=00:21:46.26 bitrate=N/A speed=19.5x    frame=31568 fps=467 q=-0.0 size=N/A time=00:21:56.64 bitrate=N/A speed=19.5x    frame=31835 fps=468 q=-0.0 size=N/A time=00:22:07.78 bitrate=N/A speed=19.5x    frame=32072 fps=468 q=-0.0 size=N/A time=00:22:17.66 bitrate=N/A speed=19.5x    frame=32288 fps=467 q=-0.0 size=N/A time=00:22:26.67 bitrate=N/A speed=19.5x    frame=32526 fps=467 q=-0.0 size=N/A time=00:22:36.60 bitrate=N/A speed=19.5x    frame=32759 fps=467 q=-0.0 size=N/A time=00:22:46.32 bitrate=N/A speed=19.5x    frame=32962 fps=467 q=-0.0 size=N/A time=00:22:54.79 bitrate=N/A speed=19.5x    frame=33131 fps=466 q=-0.0 size=N/A time=00:23:01.83 bitrate=N/A speed=19.4x    frame=33340 fps=465 q=-0.0 size=N/A time=00:23:10.55 bitrate=N/A speed=19.4x    frame=33583 fps=465 q=-0.0 size=N/A time=00:23:20.69 bitrate=N/A speed=19.4x    frame=33775 fps=465 q=-0.0 size=N/A time=00:23:28.69 bitrate=N/A speed=19.4x    frame=33962 fps=464 q=-0.0 size=N/A time=00:23:36.49 bitrate=N/A speed=19.3x    frame=34190 fps=464 q=-0.0 size=N/A time=00:23:46.00 bitrate=N/A speed=19.3x    frame=34444 fps=464 q=-0.0 size=N/A time=00:23:56.60 bitrate=N/A speed=19.3x    [Parsed_psnr_10 @ 00000252827ba6c0] PSNR y:47.641748 u:50.330711 v:50.158636 average:48.348787 min:29.413841 max:inf
[out#0/null @ 00000252eb95c040] video:14827KiB audio:269856KiB subtitle:0KiB other streams:0KiB global headers:0KiB muxing overhead: unknown
frame=34506 fps=464 q=-0.0 Lsize=N/A time=00:23:59.18 bitrate=N/A speed=19.4x    
